<svg width="20" height="20" viewBox="0 0 20 20" fill="none" xmlns="http://www.w3.org/2000/svg">
<g clip-path="url(#clip0_3401_76840)">
<path d="M14.1667 16.25H5.83342V17.0834C5.83342 17.3044 5.74562 17.5163 5.58934 17.6726C5.43306 17.8289 5.2211 17.9167 5.00008 17.9167H3.33341C3.1124 17.9167 2.90044 17.8289 2.74416 17.6726C2.58788 17.5163 2.50008 17.3044 2.50008 17.0834V9.58337H1.66675V6.25004H2.50008V3.75004C2.50008 3.30801 2.67568 2.88409 2.98824 2.57153C3.3008 2.25897 3.72472 2.08337 4.16675 2.08337H15.8334C16.2754 2.08337 16.6994 2.25897 17.0119 2.57153C17.3245 2.88409 17.5001 3.30801 17.5001 3.75004V6.25004H18.3334V9.58337H17.5001V17.0834C17.5001 17.3044 17.4123 17.5163 17.256 17.6726C17.0997 17.8289 16.8878 17.9167 16.6667 17.9167H15.0001C14.7791 17.9167 14.5671 17.8289 14.4108 17.6726C14.2545 17.5163 14.1667 17.3044 14.1667 17.0834V16.25ZM4.16675 3.75004V9.58337H15.8334V3.75004H4.16675ZM6.25008 14.5834C6.5816 14.5834 6.89954 14.4517 7.13397 14.2173C7.36839 13.9828 7.50008 13.6649 7.50008 13.3334C7.50008 13.0019 7.36839 12.6839 7.13397 12.4495C6.89954 12.2151 6.5816 12.0834 6.25008 12.0834C5.91856 12.0834 5.60062 12.2151 5.3662 12.4495C5.13178 12.6839 5.00008 13.0019 5.00008 13.3334C5.00008 13.6649 5.13178 13.9828 5.3662 14.2173C5.60062 14.4517 5.91856 14.5834 6.25008 14.5834ZM13.7501 14.5834C14.0816 14.5834 14.3995 14.4517 14.634 14.2173C14.8684 13.9828 15.0001 13.6649 15.0001 13.3334C15.0001 13.0019 14.8684 12.6839 14.634 12.4495C14.3995 12.2151 14.0816 12.0834 13.7501 12.0834C13.4186 12.0834 13.1006 12.2151 12.8662 12.4495C12.6318 12.6839 12.5001 13.0019 12.5001 13.3334C12.5001 13.6649 12.6318 13.9828 12.8662 14.2173C13.1006 14.4517 13.4186 14.5834 13.7501 14.5834Z" fill="#151414"/>
</g>
<defs>
<clipPath id="clip0_3401_76840">
<rect width="20" height="20" fill="white"/>
</clipPath>
</defs>
</svg>
