<svg width="74" height="36" viewBox="0 0 74 36" fill="none" xmlns="http://www.w3.org/2000/svg">
<g clip-path="url(#clip0_3254_31573)">
<path d="M34.5166 28.3247C33.8722 29.0939 33.0749 29.7218 32.1748 30.1688C31.3104 30.5865 30.361 30.8003 29.4003 30.7934C27.7287 30.7934 26.3574 30.1668 25.2866 28.9136C24.2159 27.6603 23.6801 26.0335 23.6794 24.0331C23.6794 21.5267 24.4048 19.4455 25.8555 17.7895C27.3061 16.1334 29.1173 15.3058 31.2889 15.3065C32.2296 15.2908 33.1598 15.5053 33.9979 15.931C34.7959 16.3481 35.5164 16.9917 36.1596 17.8618L36.491 15.766H41.3618L39.5776 26.9838C39.4324 27.8973 38.9647 28.7291 38.2586 29.3298C37.5525 29.9305 36.6544 30.2605 35.7258 30.2605H34.2731L34.5166 28.3247ZM28.8509 23.5288C28.8509 24.4567 29.1343 25.2038 29.7011 25.7703C30.2679 26.3368 31.0181 26.6191 31.9518 26.617C32.9701 26.617 33.8178 26.2224 34.4951 25.4331C35.1723 24.6438 35.511 23.6558 35.511 22.4692C35.511 21.5698 35.2276 20.8403 34.6608 20.2806C34.0941 19.7209 33.3544 19.4407 32.4418 19.44C31.9539 19.43 31.47 19.5291 31.0256 19.7299C30.5812 19.9308 30.1877 20.2283 29.874 20.6005C29.192 21.3763 28.8509 22.3523 28.8509 23.5288Z" fill="#F04935"/>
<path d="M52.9934 30.2606L55.2983 15.764H60.2274L59.8652 18.2378C60.3167 17.3201 60.922 16.6215 61.6811 16.142C62.4402 15.6624 63.3241 15.4247 64.3329 15.4288C64.4532 15.4296 64.5734 15.4367 64.693 15.4502C64.828 15.4644 65.0388 15.496 65.3273 15.5439L64.3042 20.0932C63.968 20.0171 63.6651 19.9597 63.3957 19.921C63.1382 19.884 62.8784 19.8649 62.6182 19.8639C61.6279 19.8639 60.847 20.1727 60.2754 20.7901C59.7039 21.4075 59.3124 22.3619 59.101 23.6531L58.5281 27.3068C58.3987 28.1328 57.9769 28.8855 57.339 29.4289C56.7011 29.9722 55.8891 30.2705 55.0497 30.2697L52.9934 30.2606Z" fill="#F04935"/>
<path d="M65.542 30.2603L67.8336 15.7637H73.0072L71.2312 26.9296C71.0833 27.8581 70.6077 28.7037 69.8898 29.3142C69.172 29.9248 68.2589 30.2602 67.3149 30.2603H65.542Z" fill="#F04935"/>
<path d="M68.223 11.4438C68.2241 10.7208 68.513 10.0278 69.0264 9.5167C69.5398 9.00558 70.2358 8.71809 70.9617 8.71729C71.7583 8.71729 72.4212 8.9754 72.9505 9.49163C73.2109 9.74484 73.4157 10.049 73.5522 10.385C73.6887 10.721 73.7537 11.0815 73.7433 11.4438C73.7468 11.8086 73.6771 12.1703 73.5385 12.508C73.4 12.8456 73.1952 13.1524 72.9362 13.4103C72.6772 13.6682 72.3692 13.8722 72.0302 14.0102C71.6912 14.1482 71.3279 14.2175 70.9617 14.2141C70.5995 14.2194 70.2401 14.1497 69.9064 14.0094C69.5726 13.8691 69.2718 13.6612 69.023 13.399C68.7644 13.1435 68.5603 12.8386 68.4228 12.5027C68.2853 12.1667 68.2174 11.8065 68.223 11.4438Z" fill="#F04935"/>
<path d="M51.059 14.8848H45.9509L45.8148 15.7641H43.3943L42.803 19.4677H45.2245L43.5089 30.2606H45.5171C46.383 30.2607 47.2205 29.9528 47.8787 29.3924C48.5368 28.832 48.9724 28.0559 49.107 27.204L50.3254 19.4687H52.9342L53.5255 15.7651H50.9168L51.059 14.8848Z" fill="#F04935"/>
<path d="M51.5921 11.5596H46.4615L45.949 14.8852H51.056L51.5921 11.5596Z" fill="#F04935"/>
<path d="M11.2382 3.349C11.2325 2.92189 11.3142 2.49811 11.4783 2.10346C11.6424 1.70881 11.8855 1.35156 12.1927 1.05347C12.4914 0.743626 12.8511 0.498475 13.2493 0.333334C13.6474 0.168193 14.0755 0.0866106 14.5068 0.0936855C15.4582 0.0936855 16.2494 0.402066 16.8803 1.01883C17.5111 1.63559 17.8266 2.41231 17.8266 3.349C17.8349 3.78441 17.7537 4.21692 17.5879 4.61992C17.4222 5.02292 17.1755 5.3879 16.8629 5.69242C16.5571 6.00374 16.1906 6.24949 15.786 6.41455C15.3813 6.5796 14.9471 6.66048 14.5099 6.6522C14.0779 6.65897 13.6492 6.57644 13.2509 6.40984C12.8526 6.24324 12.4933 5.99618 12.1957 5.68427C11.8864 5.37929 11.6422 5.01524 11.4777 4.61395C11.3131 4.21266 11.2317 3.78241 11.2382 3.349Z" fill="#F04935"/>
<path d="M2.93458 20.9276C2.53457 20.9837 2.20412 21.0295 1.90437 21.1915C1.61378 21.3244 1.36448 21.5327 1.18266 21.7946C1.00084 22.0566 0.893215 22.3624 0.871094 22.6801L2.06703 31.7624L2.35451 34.0559C2.36533 34.2036 2.39314 34.3495 2.43738 34.4909C2.47361 34.6046 2.52634 34.7124 2.5939 34.8109C2.72935 35.0094 2.91641 35.1675 3.13509 35.2683C3.36694 35.3736 3.61954 35.4258 3.87431 35.4211C4.12909 35.4163 4.37954 35.3547 4.60726 35.2408C4.81564 35.1421 4.99271 34.9882 5.11904 34.7959C5.24536 34.6036 5.31606 34.3803 5.32339 34.1506L4.34945 25.0908L4.24715 24.1157L5.23234 24.0138L10.9123 23.4117L12.3333 23.27C12.7309 23.2368 13.1233 23.1578 13.5026 23.0347C14.185 22.7942 14.5513 22.402 14.8091 21.6612C15.0434 20.9714 15.1538 19.9363 15.3462 19.0284L15.8475 16.2265L16.8511 10.6227L17.1027 9.24417C17.1742 8.87424 17.1773 8.49444 17.112 8.1234C17.0927 7.98759 17.0438 7.85764 16.9687 7.74269C16.8936 7.62774 16.794 7.53059 16.6772 7.45807C16.4357 7.3083 16.0562 7.23494 15.6541 7.22577C13.9692 7.2003 12.1983 7.90027 11.0842 9.24417C10.5124 9.91609 10.0992 10.7071 9.87492 11.5591C9.77138 12.0178 9.6952 12.4822 9.64678 12.9498L9.4524 14.3885L8.67694 19.978C7.15771 20.3265 5.61905 20.513 4.0896 20.7554L2.93458 20.9276Z" fill="#F04935"/>
<path d="M24.3378 8.05762H19.4507L18.9105 11.4546L18.8706 11.7032L18.5085 13.9111C18.0594 16.662 17.5949 19.5027 17.1079 22.2985C16.801 24.0662 15.471 25.2929 13.6296 25.5018C12.673 25.6108 11.472 25.7433 7.20483 25.8635L8.35167 30.7317C11.7686 30.7154 13.5395 30.3965 13.9631 30.3333C18.3131 29.6833 21.105 27.2838 21.8242 23.5772C22.438 20.4298 22.9342 17.2183 23.4252 14.0568C23.5889 13.0019 23.7543 11.9467 23.9214 10.8911C23.9296 10.8432 23.9265 10.7984 23.9316 10.7515L24.3378 8.05762Z" fill="#F04935"/>
</g>
<defs>
<clipPath id="clip0_3254_31573">
<rect width="74" height="36" fill="white"/>
</clipPath>
</defs>
</svg>
