<svg width="20" height="20" viewBox="0 0 20 20" fill="none" xmlns="http://www.w3.org/2000/svg">
<path d="M3.33341 9.08333V3.75C3.33341 3.52899 3.42121 3.31702 3.57749 3.16074C3.73377 3.00446 3.94573 2.91667 4.16675 2.91667H8.33342V1.25H11.6667V2.91667H15.8334C16.0544 2.91667 16.2664 3.00446 16.4227 3.16074C16.579 3.31702 16.6667 3.52899 16.6667 3.75V9.08333L17.5717 9.355C17.7768 9.41672 17.9503 9.55503 18.0561 9.74123C18.1619 9.92742 18.192 10.1472 18.1401 10.355L16.8767 15.4117C16.1951 15.4466 15.5154 15.3133 14.8975 15.0235C14.2795 14.7338 13.7424 14.2964 13.3334 13.75C12.9457 14.2679 12.4425 14.6882 11.8638 14.9775C11.2852 15.2668 10.647 15.4172 10.0001 15.4167C9.35314 15.4172 8.71499 15.2668 8.13634 14.9775C7.55769 14.6882 7.0545 14.2679 6.66675 13.75C6.25776 14.2964 5.72062 14.7338 5.10269 15.0235C4.48476 15.3133 3.80502 15.4466 3.12341 15.4117L1.86008 10.355C1.80816 10.1472 1.83823 9.92742 1.94406 9.74123C2.04988 9.55503 2.22333 9.41672 2.42841 9.355L3.33341 9.08333ZM5.00008 8.58333L10.0001 7.08333L12.2951 7.77167L13.8026 8.22417L15.0001 8.58333V4.58333H5.00008V8.58333ZM3.33341 17.0833C4.56364 17.085 5.75098 16.6315 6.66675 15.81C7.58252 16.6315 8.76986 17.085 10.0001 17.0833C11.2303 17.085 12.4176 16.6315 13.3334 15.81C14.2492 16.6315 15.4365 17.085 16.6667 17.0833H18.3334V18.75H16.6667C15.4964 18.7519 14.3465 18.4443 13.3334 17.8583C12.3204 18.4443 11.1704 18.7519 10.0001 18.75C8.82978 18.7519 7.67979 18.4443 6.66675 17.8583C5.6537 18.4443 4.50371 18.7519 3.33341 18.75H1.66675V17.0833H3.33341Z" fill="#151414"/>
</svg>
