<svg width="38" height="42" viewBox="0 0 38 42" fill="none" xmlns="http://www.w3.org/2000/svg">
<path d="M17.8818 18.0483L10.7501 25.1745L3.61842 18.0483C2.20871 16.638 1.24884 14.8413 0.860155 12.8854C0.471471 10.9296 0.671431 8.9024 1.43475 7.06019C2.19808 5.21797 3.49049 3.64345 5.14858 2.53569C6.80667 1.42793 8.75599 0.83667 10.7501 0.83667C12.7442 0.83667 14.6935 1.42793 16.3516 2.53569C18.0097 3.64345 19.3021 5.21797 20.0654 7.06019C20.8287 8.9024 21.0287 10.9296 20.64 12.8854C20.2513 14.8413 19.2915 16.638 17.8818 18.0483ZM10.7501 14.5833C11.7225 14.5833 12.6552 14.197 13.3428 13.5094C14.0304 12.8217 14.4168 11.8891 14.4168 10.9167C14.4168 9.9442 14.0304 9.01156 13.3428 8.32393C12.6552 7.6363 11.7225 7.24999 10.7501 7.24999C9.77763 7.24999 8.84499 7.6363 8.15736 8.32393C7.46973 9.01156 7.08342 9.9442 7.08342 10.9167C7.08342 11.8891 7.46973 12.8217 8.15736 13.5094C8.84499 14.197 9.77763 14.5833 10.7501 14.5833ZM34.3818 34.5483L27.2501 41.6763L20.1184 34.5465C18.7087 33.1361 17.7488 31.3394 17.3602 29.3836C16.9715 27.4277 17.1714 25.4006 17.9348 23.5584C18.6981 21.7161 19.9905 20.1416 21.6486 19.0339C23.3067 17.9261 25.256 17.3348 27.2501 17.3348C29.2442 17.3348 31.1935 17.9261 32.8516 19.0339C34.5097 20.1416 35.8021 21.7161 36.5654 23.5584C37.3287 25.4006 37.5287 27.4277 37.14 29.3836C36.7513 31.3394 35.7915 33.1361 34.3818 34.5465V34.5483ZM27.2501 31.0833C28.2225 31.0833 29.1552 30.697 29.8428 30.0094C30.5304 29.3217 30.9168 28.3891 30.9168 27.4167C30.9168 26.4442 30.5304 25.5116 29.8428 24.8239C29.1552 24.1363 28.2225 23.75 27.2501 23.75C26.2776 23.75 25.345 24.1363 24.6574 24.8239C23.9697 25.5116 23.5834 26.4442 23.5834 27.4167C23.5834 28.3891 23.9697 29.3217 24.6574 30.0094C25.345 30.697 26.2776 31.0833 27.2501 31.0833Z" fill="#F04935"/>
</svg>
