<svg width="20" height="16" viewBox="0 0 20 16" fill="none" xmlns="http://www.w3.org/2000/svg">
<path d="M18.3333 8.25004V14.5C18.3333 14.7211 18.2455 14.933 18.0893 15.0893C17.933 15.2456 17.721 15.3334 17.5 15.3334H16.6667C16.4457 15.3334 16.2337 15.2456 16.0774 15.0893C15.9211 14.933 15.8333 14.7211 15.8333 14.5V13.6667H4.16667V14.5C4.16667 14.7211 4.07887 14.933 3.92259 15.0893C3.76631 15.2456 3.55435 15.3334 3.33333 15.3334H2.5C2.27899 15.3334 2.06702 15.2456 1.91074 15.0893C1.75446 14.933 1.66667 14.7211 1.66667 14.5V8.25004L0.630833 7.99171C0.450628 7.94656 0.290674 7.8425 0.176379 7.69605C0.0620851 7.54959 4.88369e-06 7.36915 0 7.18337L0 6.58337C0 6.47287 0.0438987 6.36689 0.122039 6.28875C0.200179 6.21061 0.30616 6.16671 0.416667 6.16671H1.97917L3.76083 1.41504C3.87994 1.09728 4.09321 0.823459 4.37213 0.630168C4.65105 0.436877 4.98232 0.333332 5.32167 0.333374H14.6783C15.0177 0.333332 15.349 0.436877 15.6279 0.630168C15.9068 0.823459 16.1201 1.09728 16.2392 1.41504L18.0208 6.16671H19.5833C19.6938 6.16671 19.7998 6.21061 19.878 6.28875C19.9561 6.36689 20 6.47287 20 6.58337V7.18337C20 7.36915 19.9379 7.54959 19.8236 7.69605C19.7093 7.8425 19.5494 7.94656 19.3692 7.99171L18.3333 8.25004ZM3.33333 9.50004V11.1667C3.33333 11.3877 3.42113 11.5997 3.57741 11.756C3.73369 11.9122 3.94565 12 4.16667 12H6.87083C6.94279 11.9999 7.01348 11.9812 7.07604 11.9456C7.13859 11.9101 7.19088 11.8589 7.2278 11.7972C7.26472 11.7354 7.28502 11.6652 7.28672 11.5932C7.28842 11.5213 7.27146 11.4501 7.2375 11.3867C6.56667 10.1284 5.265 9.50004 3.33333 9.50004ZM16.6667 9.50004C14.7358 9.50004 13.4342 10.1292 12.7617 11.3867C12.7277 11.4502 12.7107 11.5214 12.7125 11.5934C12.7142 11.6654 12.7346 11.7358 12.7716 11.7975C12.8086 11.8593 12.861 11.9104 12.9237 11.9459C12.9863 11.9814 13.0571 12.0001 13.1292 12H15.8333C16.0543 12 16.2663 11.9122 16.4226 11.756C16.5789 11.5997 16.6667 11.3877 16.6667 11.1667V9.50004ZM5 2.00004L3.69917 5.90337C3.65746 6.02858 3.64609 6.16191 3.666 6.29237C3.6859 6.42284 3.7365 6.54671 3.81364 6.65379C3.89078 6.76087 3.99224 6.8481 4.10969 6.9083C4.22713 6.9685 4.35719 6.99994 4.48917 7.00004H15.5108C15.6428 6.99994 15.7729 6.9685 15.8903 6.9083C16.0078 6.8481 16.1092 6.76087 16.1864 6.65379C16.2635 6.54671 16.3141 6.42284 16.334 6.29237C16.3539 6.16191 16.3425 6.02858 16.3008 5.90337L15 2.00004H5Z" fill="#151414"/>
</svg>
